<?xml version="1.0" standalone="no"?>
<!DOCTYPE svg PUBLIC "-//W3C//DTD SVG 20010904//EN"
 "http://www.w3.org/TR/2001/REC-SVG-20010904/DTD/svg10.dtd">
<svg version="1.0" xmlns="http://www.w3.org/2000/svg"
 width="180.000000pt" height="180.000000pt" viewBox="0 0 180.000000 180.000000"
 preserveAspectRatio="xMidYMid meet">
<metadata>
Created by potrace 1.16, written by Peter Selinger 2001-2019
</metadata>
<g transform="translate(0.000000,180.000000) scale(0.100000,-0.100000)"
fill="#4a5e3a" stroke="none">
<path d="M511 1490 c-108 -29 -178 -67 -247 -136 -59 -59 -87 -109 -108 -196
l-6 -28 162 0 163 1 20 32 c29 46 86 71 175 75 121 6 195 -41 225 -140 27 -91
40 -84 -182 -91 -281 -8 -419 -44 -508 -132 -63 -64 -80 -113 -80 -240 0 -100
2 -114 27 -160 72 -135 206 -205 393 -205 145 0 256 39 331 117 l42 42 6 -37
c3 -20 6 -54 6 -74 l0 -38 146 0 146 0 -5 393 c-6 407 -9 441 -53 557 -48 125
-131 208 -249 251 -89 32 -301 37 -404 9z m399 -732 c-1 -147 -167 -260 -344
-234 -35 6 -57 17 -86 45 -36 34 -40 43 -40 87 0 113 64 140 338 143 l132 1 0
-42z"/>
<path d="M1425 632 c-74 -36 -115 -103 -115 -190 0 -74 34 -130 99 -164 67
-35 121 -36 187 -3 75 38 99 80 99 175 0 87 -20 127 -83 170 -46 32 -132 38
-187 12z"/>
</g>
</svg>
